# Blender v2.78 (sub 0) OBJ File: '4.blend'
# www.blender.org
mtllib Chair_01.mtl
o chair_Cube.026
v -1.985467 4.758322 1.214249
v -2.836988 9.533399 1.271739
v -1.985467 4.758322 1.488765
v -2.836988 9.533399 1.546255
v -2.159768 4.758322 1.214250
v -3.011290 9.533399 1.271739
v -2.159768 4.758322 1.488765
v -3.011290 9.533399 1.546255
v -2.027241 4.758322 0.304020
v -2.933421 9.533399 0.361510
v -2.027241 4.758322 0.578536
v -2.933421 9.533399 0.636026
v -2.201543 4.758322 0.304021
v -3.107723 9.533399 0.361510
v -2.201542 4.758322 0.578536
v -3.107723 9.533399 0.636026
v -1.985467 4.758322 -1.214248
v -2.836989 9.533399 -1.271737
v -1.985468 4.758322 -1.488764
v -2.836989 9.533399 -1.546253
v -2.159769 4.758322 -1.214248
v -3.011291 9.533399 -1.271737
v -2.159769 4.758322 -1.488764
v -3.011291 9.533399 -1.546253
v -2.027241 4.758322 -0.304019
v -2.933421 9.533399 -0.361508
v -2.027241 4.758322 -0.578535
v -2.933422 9.533399 -0.636024
v -2.201543 4.758322 -0.304019
v -3.107723 9.533399 -0.361508
v -2.201543 4.758322 -0.578535
v -3.107723 9.533399 -0.636024
v 2.284161 4.286845 -2.312532
v 2.284161 4.794837 -2.312532
v 2.284163 4.286845 2.312530
v 2.284163 4.794837 2.312530
v -2.312532 4.286845 -2.312530
v -2.312532 4.794837 -2.312530
v -2.312530 4.286845 2.312532
v -2.312530 4.794837 2.312532
v 2.231380 4.286845 1.656720
v 2.231380 4.286845 -1.656721
v 2.231380 4.794837 -1.656721
v 2.231380 4.794837 1.656720
v -2.312531 4.286845 -1.656720
v -2.312531 4.286845 1.656721
v -2.312531 4.794837 1.778597
v -2.312531 4.794837 -1.778596
v -1.723443 4.286845 2.312531
v 1.699842 4.286845 2.312531
v 1.699842 4.794837 2.312531
v -2.003004 4.794837 2.312532
v 1.699840 4.286845 -2.312531
v -1.723444 4.286845 -2.312531
v -2.003005 4.794837 -2.312530
v 1.699840 4.794837 -2.312531
v 2.010786 4.934438 1.942049
v -2.003004 4.794837 1.778597
v 1.963284 4.934438 1.391303
v -2.003005 4.794837 -1.778596
v -1.723443 4.286845 1.656721
v 1.651258 4.286845 1.656720
v -1.723444 4.286845 -1.656720
v 1.651257 4.286845 -1.656721
v 2.060032 4.794837 1.487968
v 2.110413 4.794837 2.076978
v 1.589256 4.794837 -2.076979
v 2.110411 4.794837 -2.076979
v 2.060031 4.794837 -1.487969
v 1.589257 4.794837 2.076978
v -1.763679 4.794837 2.076979
v -1.763681 4.794837 -2.076978
v 1.722048 5.072457 1.610615
v -1.763680 4.794837 1.487969
v 1.684789 5.072457 1.153861
v -1.763681 4.794837 -1.487968
v 1.525797 4.934438 -1.942050
v 2.010784 4.934438 -1.942050
v 1.963283 4.934438 -1.391305
v 1.525798 4.934438 1.942049
v -1.618145 4.934438 1.942050
v -1.618146 4.934438 -1.942049
v -0.919831 4.794837 2.312531
v -1.618145 4.934438 1.391304
v -0.919831 4.286845 2.312531
v -1.618146 4.934438 -1.391304
v 1.326026 5.072457 -1.610616
v 1.722047 5.072457 -1.610616
v 1.684788 5.072457 -1.153862
v 1.326027 5.072457 1.610615
v -1.307068 5.072457 1.610616
v -1.307069 5.072457 -1.610615
v 1.293743 5.105423 1.153861
v -1.307068 5.072457 1.153862
v 1.293742 5.105423 -1.153862
v -1.307068 5.072457 -1.153861
v -0.919832 4.286845 -2.312531
v -0.919832 4.794837 -2.312531
v -0.919831 4.286845 1.656721
v -0.919832 4.286845 -1.656720
v -0.747620 4.794837 2.076979
v -0.747622 4.794837 -2.076978
v -0.648974 4.934438 1.942049
v -0.648975 4.934438 -1.942049
v -0.453071 5.072457 1.610616
v -0.453072 5.072457 -1.610616
v -0.453315 5.105423 1.153862
v -0.453316 5.105423 -1.153861
v 2.129237 4.286845 -0.000001
v 2.129237 4.794837 -0.000001
v -2.312531 4.286845 0.000001
v -2.312531 4.794837 0.000001
v 1.557722 4.286845 -0.000001
v -1.723444 4.286845 0.000001
v -1.983606 4.794837 0.000001
v 1.973585 4.794837 -0.000001
v -1.763680 4.794837 0.000001
v 1.886634 4.934438 -0.000001
v -1.618146 4.934438 0.000001
v 1.632207 5.072457 -0.000001
v -1.307068 5.072457 0.000000
v 1.248160 5.105423 -0.000000
v -0.457800 5.105423 0.000000
v -0.919831 4.286845 0.000000
v 2.227838 0.001936 -1.743306
v 2.266683 0.001936 -2.225947
v 1.836655 0.001936 2.225946
v 2.266684 0.001936 2.225946
v -3.036443 0.001936 1.508460
v -3.036443 0.001936 1.978956
v -2.613817 0.001936 -1.978955
v -3.036445 0.001936 -1.978954
v 2.227839 0.001936 1.743304
v -3.036444 0.001936 -1.508458
v 1.800900 0.001936 1.743304
v 1.800899 0.001936 -1.743305
v -2.613815 0.001936 1.978956
v 1.836653 0.001936 -2.225947
v -2.613816 0.001936 1.508459
v -2.613816 0.001936 -1.508458
v -2.749699 9.925459 2.492489
v -3.059226 9.925459 2.492489
v -3.059227 9.925459 -1.785643
v -3.059228 9.925459 -2.492487
v -3.059227 9.925459 1.785645
v -2.749700 9.925459 1.785645
v -2.749701 9.925459 -1.785643
v -2.749701 9.925459 -2.492487
v -2.676801 9.472978 1.917005
v -2.676801 9.472978 2.492489
v -2.986328 9.472978 1.917005
v -2.986328 9.472978 2.492489
v -2.986330 9.472978 -2.492487
v -2.676803 9.472978 -2.492487
v -2.676803 9.472978 -1.917004
v -2.986330 9.472978 -1.917004
v -3.234944 9.925459 0.595216
v -3.234945 9.925459 -0.595214
v -3.162047 9.472978 -0.595214
v -3.162047 9.472978 0.595216
v -2.852521 9.472978 -0.595214
v -2.852520 9.472978 0.595216
v -2.925418 9.925459 -0.595214
v -2.925417 9.925459 0.595216
vn 0.9845 0.1756 -0.0000
vn 0.0000 -0.0120 0.9999
vn -0.9845 -0.1756 0.0000
vn -0.0000 0.0120 -0.9999
vn 0.0000 -1.0000 0.0000
vn 0.0000 1.0000 0.0000
vn 0.9825 0.1864 -0.0000
vn -0.9825 -0.1864 0.0000
vn 0.0000 -0.0120 -0.9999
vn 0.0000 0.0120 0.9999
vn 0.9968 0.0000 -0.0802
vn 0.0000 -0.0000 1.0000
vn -1.0000 -0.0000 0.0000
vn -0.0000 0.0000 -1.0000
vn 0.0000 -0.0202 0.9998
vn 0.9968 -0.0024 0.0802
vn 0.9968 0.0000 0.0802
vn 0.9981 0.0000 -0.0615
vn -0.0000 -0.0202 -0.9998
vn -0.9860 0.1666 0.0000
vn 0.9981 0.0000 0.0615
vn -0.9967 -0.0333 0.0738
vn -0.9967 -0.0333 -0.0738
vn 0.9791 -0.2034 -0.0000
vn 0.0000 -0.0776 -0.9970
vn -0.0000 0.0346 -0.9994
vn 0.9968 -0.0024 -0.0802
vn 0.0000 0.0346 0.9994
vn 0.0000 -0.0776 0.9970
vn 0.9873 0.1591 -0.0000
vn -0.9873 -0.1591 0.0000
vn -0.9809 -0.1381 -0.1372
vn 0.0000 -0.0384 0.9993
vn -0.9898 -0.1426 0.0000
vn 0.0000 0.0296 -0.9996
vn 0.9898 0.1426 -0.0000
vn 0.0000 -0.0384 -0.9993
vn 0.0000 0.0296 0.9996
vn 0.9809 0.1381 0.1372
vn 0.9809 0.1381 -0.1372
vn -0.9809 -0.1381 0.1372
vn -0.6922 0.7217 0.0000
vn 0.0000 0.6950 0.7190
vn 0.8431 0.5329 -0.0724
vn 0.8419 0.5374 0.0477
vn -0.0000 0.6950 -0.7190
vn -0.4056 0.9141 0.0000
vn -0.0000 0.9232 -0.3844
vn 0.0000 0.9232 0.3844
vn 0.4690 0.8823 -0.0395
vn 0.4681 0.8833 0.0238
vn 0.8431 0.5329 0.0724
vn 0.0418 0.9986 -0.0329
vn 0.0418 0.9986 0.0329
vn 0.0848 0.9964 0.0036
vn 0.0000 0.9974 0.0720
vn -0.0000 0.9974 -0.0720
vn 0.4690 0.8823 0.0395
vn -0.0193 0.9992 -0.0361
vn -0.0193 0.9992 0.0361
vn -0.0387 0.9993 -0.0001
vn -0.0387 0.9993 0.0001
vn 0.0848 0.9964 -0.0036
vn 0.4681 0.8833 -0.0238
vn 0.8419 0.5374 -0.0477
usemtl 795548
s off
f 1//1 2//1 4//1 3//1
f 3//2 4//2 8//2 7//2
f 7//3 8//3 6//3 5//3
f 5//4 6//4 2//4 1//4
f 3//5 7//5 5//5 1//5
f 8//6 4//6 2//6 6//6
f 9//7 10//7 12//7 11//7
f 11//2 12//2 16//2 15//2
f 15//8 16//8 14//8 13//8
f 13//4 14//4 10//4 9//4
f 11//5 15//5 13//5 9//5
f 16//6 12//6 10//6 14//6
f 17//1 19//1 20//1 18//1
f 19//9 23//9 24//9 20//9
f 23//3 21//3 22//3 24//3
f 21//10 17//10 18//10 22//10
f 19//5 17//5 21//5 23//5
f 24//6 22//6 18//6 20//6
f 25//7 27//7 28//7 26//7
f 27//9 31//9 32//9 28//9
f 31//8 29//8 30//8 32//8
f 29//10 25//10 26//10 30//10
f 27//5 25//5 29//5 31//5
f 32//6 30//6 26//6 28//6
f 41//11 44//11 36//11 35//11
f 49//12 52//12 40//12 39//12
f 45//13 48//13 38//13 37//13
f 53//14 56//14 34//14 33//14
f 42//15 64//15 136//15 125//15
f 115//6 58//6 74//6 117//6
f 83//6 51//6 70//6 101//6
f 51//6 36//6 66//6 70//6
f 33//16 42//16 125//16 126//16
f 114//5 111//5 45//5 63//5
f 39//13 40//13 47//13 46//13
f 111//13 112//13 48//13 45//13
f 33//17 34//17 43//17 42//17
f 109//18 110//18 44//18 41//18
f 109//5 113//5 64//5 42//5
f 124//5 114//5 63//5 100//5
f 62//19 41//19 133//19 135//19
f 85//5 49//5 61//5 99//5
f 112//6 115//6 60//6 48//6
f 58//6 52//6 71//6 74//6
f 159//5 156//5 155//5 161//5
f 36//6 44//6 65//6 66//6
f 154//14 153//14 144//14 148//14
f 110//6 43//6 69//6 116//6
f 39//20 46//20 129//20 130//20
f 100//5 63//5 54//5 97//5
f 37//14 38//14 55//14 54//14
f 97//14 98//14 56//14 53//14
f 35//12 36//12 51//12 50//12
f 85//12 83//12 52//12 49//12
f 43//6 34//6 68//6 69//6
f 34//6 56//6 67//6 68//6
f 55//6 60//6 76//6 72//6
f 98//6 55//6 72//6 102//6
f 56//6 98//6 102//6 67//6
f 50//12 51//12 83//12 85//12
f 54//14 55//14 98//14 97//14
f 64//5 100//5 97//5 53//5
f 50//5 85//5 99//5 62//5
f 113//5 124//5 100//5 64//5
f 52//6 83//6 101//6 71//6
f 62//5 99//5 124//5 113//5
f 44//6 110//6 116//6 65//6
f 47//6 58//6 115//6 112//6
f 99//5 61//5 114//5 124//5
f 41//5 62//5 113//5 109//5
f 42//21 43//21 110//21 109//21
f 46//13 47//13 112//13 111//13
f 61//5 46//5 111//5 114//5
f 60//6 115//6 117//6 76//6
f 140//5 134//5 132//5 131//5
f 137//5 130//5 129//5 139//5
f 128//5 127//5 135//5 133//5
f 125//5 136//5 138//5 126//5
f 45//20 37//20 132//20 134//20
f 50//22 62//22 135//22 127//22
f 64//23 53//23 138//23 136//23
f 53//19 33//19 126//19 138//19
f 61//24 49//24 137//24 139//24
f 37//25 54//25 131//25 132//25
f 46//26 61//26 139//26 129//26
f 54//24 63//24 140//24 131//24
f 35//15 50//15 127//15 128//15
f 41//27 35//27 128//27 133//27
f 63//28 45//28 134//28 140//28
f 49//29 39//29 130//29 137//29
f 142//6 141//6 146//6 145//6
f 143//6 147//6 148//6 144//6
f 155//30 154//30 148//30 147//30
f 153//31 156//31 143//31 144//31
f 150//30 149//30 146//30 141//30
f 158//32 143//32 156//32 159//32
f 151//31 152//31 142//31 145//31
f 152//12 150//12 141//12 142//12
f 40//33 52//33 150//33 152//33
f 47//34 40//34 152//34 151//34
f 58//35 47//35 151//35 149//35
f 52//36 58//36 149//36 150//36
f 38//34 48//34 156//34 153//34
f 60//36 55//36 154//36 155//36
f 55//37 38//37 153//37 154//37
f 48//38 60//38 155//38 156//38
f 161//39 155//39 147//39 163//39
f 163//6 147//6 143//6 158//6
f 146//6 164//6 157//6 145//6
f 164//6 163//6 158//6 157//6
f 149//40 162//40 164//40 146//40
f 162//30 161//30 163//30 164//30
f 145//41 157//41 160//41 151//41
f 157//31 158//31 159//31 160//31
f 151//5 160//5 162//5 149//5
f 160//5 159//5 161//5 162//5
usemtl DD9944
f 117//42 74//42 84//42 119//42
f 70//43 66//43 57//43 80//43
f 66//44 65//44 59//44 57//44
f 116//45 69//45 79//45 118//45
f 74//42 71//42 81//42 84//42
f 102//46 72//46 82//46 104//46
f 82//47 86//47 96//47 92//47
f 78//48 77//48 87//48 88//48
f 119//47 84//47 94//47 121//47
f 80//49 57//49 73//49 90//49
f 57//50 59//50 75//50 73//50
f 118//51 79//51 89//51 120//51
f 68//46 67//46 77//46 78//46
f 72//42 76//42 86//42 82//42
f 101//43 70//43 80//43 103//43
f 69//52 68//52 78//52 79//52
f 95//53 89//53 88//53 87//53
f 90//54 73//54 75//54 93//54
f 122//55 120//55 89//55 95//55
f 123//6 122//6 95//6 108//6
f 105//56 90//56 93//56 107//56
f 108//57 95//57 87//57 106//57
f 103//49 80//49 90//49 105//49
f 79//58 78//58 88//58 89//58
f 104//48 82//48 92//48 106//48
f 84//47 81//47 91//47 94//47
f 77//48 104//48 106//48 87//48
f 81//49 103//49 105//49 91//49
f 96//59 108//59 106//59 92//59
f 91//60 105//60 107//60 94//60
f 121//61 123//61 108//61 96//61
f 71//43 101//43 103//43 81//43
f 67//46 102//46 104//46 77//46
f 94//62 107//62 123//62 121//62
f 107//6 93//6 122//6 123//6
f 93//63 75//63 120//63 122//63
f 59//64 118//64 120//64 75//64
f 86//47 119//47 121//47 96//47
f 65//65 116//65 118//65 59//65
f 76//42 117//42 119//42 86//42
